<?xml version="1.0" encoding="UTF-8" standalone="no"?>
<!DOCTYPE svg PUBLIC "-//W3C//DTD SVG 1.1//EN"
 "http://www.w3.org/Graphics/SVG/1.1/DTD/svg11.dtd">
<!-- Generated by graphviz version 2.44.0 (20200408.0750)
 -->
<!-- Title: dependency&#45;cruiser output Pages: 1 -->
<svg width="395pt" height="166pt"
 viewBox="0.00 0.00 395.00 166.00" xmlns="http://www.w3.org/2000/svg" xmlns:xlink="http://www.w3.org/1999/xlink">
<g id="graph0" class="graph" transform="scale(1 1) rotate(0) translate(4 162)">
<title>dependency&#45;cruiser output</title>
<polygon fill="white" stroke="transparent" points="-4,4 -4,-162 391,-162 391,4 -4,4"/>
<g id="clust1" class="cluster">
<title>cluster_src</title>
<path fill="#ffffff" stroke="black" stroke-width="2" d="M20,-8C20,-8 367,-8 367,-8 373,-8 379,-14 379,-20 379,-20 379,-138 379,-138 379,-144 373,-150 367,-150 367,-150 20,-150 20,-150 14,-150 8,-144 8,-138 8,-138 8,-20 8,-20 8,-14 14,-8 20,-8"/>
<text text-anchor="middle" x="193.5" y="-138.8" font-family="Helvetica,sans-Serif" font-weight="bold" font-size="9.00">src</text>
</g>
<!-- src/Condition.ts -->
<g id="node1" class="node">
<title>src/Condition.ts</title>
<g id="a_node1"><a xlink:href="https://github.com/jasoncraftscode/dynamodb-datamodel/tree/master/src/Condition.ts" xlink:title="Condition.ts">
<path fill="#ddfeff" stroke="black" d="M342.5,-34C342.5,-34 289.5,-34 289.5,-34 286.5,-34 283.5,-31 283.5,-28 283.5,-28 283.5,-22 283.5,-22 283.5,-19 286.5,-16 289.5,-16 289.5,-16 342.5,-16 342.5,-16 345.5,-16 348.5,-19 348.5,-22 348.5,-22 348.5,-28 348.5,-28 348.5,-31 345.5,-34 342.5,-34"/>
<text text-anchor="middle" x="316" y="-22.8" font-family="Helvetica,sans-Serif" font-size="9.00">Condition.ts</text>
</a>
</g>
</g>
<!-- src/ExpressionAttributes.ts -->
<g id="node2" class="node">
<title>src/ExpressionAttributes.ts</title>
<g id="a_node2"><a xlink:href="https://github.com/jasoncraftscode/dynamodb-datamodel/tree/master/src/ExpressionAttributes.ts" xlink:title="ExpressionAttributes.ts">
<path fill="#ddfeff" stroke="black" d="M365,-64C365,-64 267,-64 267,-64 264,-64 261,-61 261,-58 261,-58 261,-52 261,-52 261,-49 264,-46 267,-46 267,-46 365,-46 365,-46 368,-46 371,-49 371,-52 371,-52 371,-58 371,-58 371,-61 368,-64 365,-64"/>
<text text-anchor="middle" x="316" y="-52.8" font-family="Helvetica,sans-Serif" font-size="9.00">ExpressionAttributes.ts</text>
</a>
</g>
</g>
<!-- src/Fields.ts -->
<g id="node3" class="node">
<title>src/Fields.ts</title>
<g id="a_node3"><a xlink:href="https://github.com/jasoncraftscode/dynamodb-datamodel/tree/master/src/Fields.ts" xlink:title="Fields.ts">
<path fill="#ddfeff" stroke="black" d="M77.5,-91C77.5,-91 35.5,-91 35.5,-91 32.5,-91 29.5,-88 29.5,-85 29.5,-85 29.5,-79 29.5,-79 29.5,-76 32.5,-73 35.5,-73 35.5,-73 77.5,-73 77.5,-73 80.5,-73 83.5,-76 83.5,-79 83.5,-79 83.5,-85 83.5,-85 83.5,-88 80.5,-91 77.5,-91"/>
<text text-anchor="middle" x="56.5" y="-79.8" font-family="Helvetica,sans-Serif" font-size="9.00">Fields.ts</text>
</a>
</g>
</g>
<!-- src/Fields.ts&#45;&gt;src/Condition.ts -->
<g id="edge1" class="edge">
<title>src/Fields.ts&#45;&gt;src/Condition.ts</title>
<path fill="none" stroke="#000000" stroke-width="2" stroke-opacity="0.200000" d="M76.4,-72.81C83.37,-68.86 91.01,-63.81 97,-58 104.61,-50.62 100.85,-43.35 110,-38 161.76,-7.75 233.93,-11.62 277.39,-17.85"/>
<polygon fill="#000000" fill-opacity="0.200000" stroke="#000000" stroke-width="2" stroke-opacity="0.200000" points="277.08,-19.92 283.33,-18.74 277.71,-15.77 277.08,-19.92"/>
</g>
<!-- src/Model.ts -->
<g id="node4" class="node">
<title>src/Model.ts</title>
<g id="a_node4"><a xlink:href="https://github.com/jasoncraftscode/dynamodb-datamodel/tree/master/src/Model.ts" xlink:title="Model.ts">
<path fill="#ddfeff" stroke="black" d="M166.5,-101C166.5,-101 124.5,-101 124.5,-101 121.5,-101 118.5,-98 118.5,-95 118.5,-95 118.5,-89 118.5,-89 118.5,-86 121.5,-83 124.5,-83 124.5,-83 166.5,-83 166.5,-83 169.5,-83 172.5,-86 172.5,-89 172.5,-89 172.5,-95 172.5,-95 172.5,-98 169.5,-101 166.5,-101"/>
<text text-anchor="middle" x="145.5" y="-89.8" font-family="Helvetica,sans-Serif" font-size="9.00">Model.ts</text>
</a>
</g>
</g>
<!-- src/Fields.ts&#45;&gt;src/Model.ts -->
<g id="edge2" class="edge">
<title>src/Fields.ts&#45;&gt;src/Model.ts</title>
<path fill="none" stroke="#000000" stroke-width="2" stroke-opacity="0.200000" d="M83.6,-85C92.64,-86.04 102.87,-87.21 112.33,-88.3"/>
<polygon fill="#000000" fill-opacity="0.200000" stroke="#000000" stroke-width="2" stroke-opacity="0.200000" points="112.21,-90.4 118.42,-89 112.69,-86.23 112.21,-90.4"/>
</g>
<!-- src/Table.ts -->
<g id="node5" class="node">
<title>src/Table.ts</title>
<g id="a_node5"><a xlink:href="https://github.com/jasoncraftscode/dynamodb-datamodel/tree/master/src/Table.ts" xlink:title="Table.ts">
<path fill="#ddfeff" stroke="black" d="M242,-71C242,-71 200,-71 200,-71 197,-71 194,-68 194,-65 194,-65 194,-59 194,-59 194,-56 197,-53 200,-53 200,-53 242,-53 242,-53 245,-53 248,-56 248,-59 248,-59 248,-65 248,-65 248,-68 245,-71 242,-71"/>
<text text-anchor="middle" x="221" y="-59.8" font-family="Helvetica,sans-Serif" font-size="9.00">Table.ts</text>
</a>
</g>
</g>
<!-- src/Fields.ts&#45;&gt;src/Table.ts -->
<g id="edge3" class="edge">
<title>src/Fields.ts&#45;&gt;src/Table.ts</title>
<path fill="none" stroke="#000000" stroke-width="2" stroke-opacity="0.200000" d="M73.63,-72.97C80.93,-68.69 89.58,-63.35 97,-58 103.14,-53.58 102.89,-49.6 110,-47 139.63,-36.15 149.97,-41.24 181,-47 185.61,-47.86 190.39,-49.24 194.94,-50.82"/>
<polygon fill="#000000" fill-opacity="0.200000" stroke="#000000" stroke-width="2" stroke-opacity="0.200000" points="194.21,-52.79 200.57,-52.92 195.68,-48.86 194.21,-52.79"/>
</g>
<!-- src/Update.ts -->
<g id="node6" class="node">
<title>src/Update.ts</title>
<g id="a_node6"><a xlink:href="https://github.com/jasoncraftscode/dynamodb-datamodel/tree/master/src/Update.ts" xlink:title="Update.ts">
<path fill="#ddfeff" stroke="black" d="M338,-124C338,-124 294,-124 294,-124 291,-124 288,-121 288,-118 288,-118 288,-112 288,-112 288,-109 291,-106 294,-106 294,-106 338,-106 338,-106 341,-106 344,-109 344,-112 344,-112 344,-118 344,-118 344,-121 341,-124 338,-124"/>
<text text-anchor="middle" x="316" y="-112.8" font-family="Helvetica,sans-Serif" font-size="9.00">Update.ts</text>
</a>
</g>
</g>
<!-- src/Fields.ts&#45;&gt;src/Update.ts -->
<g id="edge4" class="edge">
<title>src/Fields.ts&#45;&gt;src/Update.ts</title>
<path fill="none" stroke="#000000" stroke-width="2" stroke-opacity="0.200000" d="M72.51,-91.16C82.69,-96.86 96.67,-103.71 110,-107 169.21,-121.6 240.91,-120.25 281.92,-117.75"/>
<polygon fill="#000000" fill-opacity="0.200000" stroke="#000000" stroke-width="2" stroke-opacity="0.200000" points="282.13,-119.84 287.98,-117.36 281.86,-115.65 282.13,-119.84"/>
</g>
<!-- src/Model.ts&#45;&gt;src/Table.ts -->
<g id="edge5" class="edge">
<title>src/Model.ts&#45;&gt;src/Table.ts</title>
<path fill="none" stroke="#000000" stroke-width="2" stroke-opacity="0.200000" d="M168.55,-83C175.9,-80 184.18,-76.62 191.92,-73.46"/>
<polygon fill="#000000" fill-opacity="0.200000" stroke="#000000" stroke-width="2" stroke-opacity="0.200000" points="192.95,-75.31 197.71,-71.1 191.36,-71.42 192.95,-75.31"/>
</g>
<!-- src/Table.ts&#45;&gt;src/Condition.ts -->
<g id="edge6" class="edge">
<title>src/Table.ts&#45;&gt;src/Condition.ts</title>
<path fill="none" stroke="#000000" stroke-width="2" stroke-opacity="0.200000" d="M236.03,-52.99C243.27,-48.62 252.38,-43.57 261,-40 266.22,-37.84 271.84,-35.89 277.42,-34.17"/>
<polygon fill="#000000" fill-opacity="0.200000" stroke="#000000" stroke-width="2" stroke-opacity="0.200000" points="278.28,-36.1 283.44,-32.38 277.09,-32.07 278.28,-36.1"/>
</g>
<!-- src/Table.ts&#45;&gt;src/ExpressionAttributes.ts -->
<g id="edge7" class="edge">
<title>src/Table.ts&#45;&gt;src/ExpressionAttributes.ts</title>
<path fill="none" stroke="#000000" stroke-width="2" stroke-opacity="0.200000" d="M248.4,-60.01C250.39,-59.86 252.44,-59.71 254.52,-59.55"/>
<polygon fill="#000000" fill-opacity="0.200000" stroke="#000000" stroke-width="2" stroke-opacity="0.200000" points="255.07,-61.62 260.9,-59.07 254.76,-57.43 255.07,-61.62"/>
</g>
<!-- src/Table.ts&#45;&gt;src/Update.ts -->
<g id="edge9" class="edge">
<title>src/Table.ts&#45;&gt;src/Update.ts</title>
<path fill="none" stroke="#000000" stroke-width="2" stroke-opacity="0.200000" d="M229.08,-71.17C236.23,-79.83 248.05,-92.56 261,-100 267.39,-103.67 274.73,-106.49 281.9,-108.63"/>
<polygon fill="#000000" fill-opacity="0.200000" stroke="#000000" stroke-width="2" stroke-opacity="0.200000" points="281.51,-110.7 287.85,-110.27 282.63,-106.65 281.51,-110.7"/>
</g>
<!-- src/KeyCondition.ts -->
<g id="node7" class="node">
<title>src/KeyCondition.ts</title>
<g id="a_node7"><a xlink:href="https://github.com/jasoncraftscode/dynamodb-datamodel/tree/master/src/KeyCondition.ts" xlink:title="KeyCondition.ts">
<path fill="#ddfeff" stroke="black" d="M350.5,-94C350.5,-94 281.5,-94 281.5,-94 278.5,-94 275.5,-91 275.5,-88 275.5,-88 275.5,-82 275.5,-82 275.5,-79 278.5,-76 281.5,-76 281.5,-76 350.5,-76 350.5,-76 353.5,-76 356.5,-79 356.5,-82 356.5,-82 356.5,-88 356.5,-88 356.5,-91 353.5,-94 350.5,-94"/>
<text text-anchor="middle" x="316" y="-82.8" font-family="Helvetica,sans-Serif" font-size="9.00">KeyCondition.ts</text>
</a>
</g>
</g>
<!-- src/Table.ts&#45;&gt;src/KeyCondition.ts -->
<g id="edge8" class="edge">
<title>src/Table.ts&#45;&gt;src/KeyCondition.ts</title>
<path fill="none" stroke="#000000" stroke-width="2" stroke-opacity="0.200000" d="M248.4,-68.53C255.85,-70.37 264.14,-72.42 272.29,-74.44"/>
<polygon fill="#000000" fill-opacity="0.200000" stroke="#000000" stroke-width="2" stroke-opacity="0.200000" points="272.14,-76.56 278.47,-75.96 273.14,-72.49 272.14,-76.56"/>
</g>
<!-- src/TableIndex.ts -->
<g id="node8" class="node">
<title>src/TableIndex.ts</title>
<g id="a_node8"><a xlink:href="https://github.com/jasoncraftscode/dynamodb-datamodel/tree/master/src/TableIndex.ts" xlink:title="TableIndex.ts">
<path fill="#ddfeff" stroke="black" d="M175,-71C175,-71 116,-71 116,-71 113,-71 110,-68 110,-65 110,-65 110,-59 110,-59 110,-56 113,-53 116,-53 116,-53 175,-53 175,-53 178,-53 181,-56 181,-59 181,-59 181,-65 181,-65 181,-68 178,-71 175,-71"/>
<text text-anchor="middle" x="145.5" y="-59.8" font-family="Helvetica,sans-Serif" font-size="9.00">TableIndex.ts</text>
</a>
</g>
</g>
<!-- src/TableIndex.ts&#45;&gt;src/Table.ts -->
<g id="edge10" class="edge">
<title>src/TableIndex.ts&#45;&gt;src/Table.ts</title>
<path fill="none" stroke="#000000" stroke-width="2" stroke-opacity="0.200000" d="M181.1,-62C183.26,-62 185.43,-62 187.58,-62"/>
<polygon fill="#000000" fill-opacity="0.200000" stroke="#000000" stroke-width="2" stroke-opacity="0.200000" points="187.93,-64.1 193.93,-62 187.93,-59.9 187.93,-64.1"/>
</g>
<!-- src/TableValidate.ts -->
<g id="node9" class="node">
<title>src/TableValidate.ts</title>
<g id="a_node9"><a xlink:href="https://github.com/jasoncraftscode/dynamodb-datamodel/tree/master/src/TableValidate.ts" xlink:title="TableValidate.ts">
<path fill="#ccffcc" stroke="black" d="M91,-52C91,-52 22,-52 22,-52 19,-52 16,-49 16,-46 16,-46 16,-40 16,-40 16,-37 19,-34 22,-34 22,-34 91,-34 91,-34 94,-34 97,-37 97,-40 97,-40 97,-46 97,-46 97,-49 94,-52 91,-52"/>
<text text-anchor="middle" x="56.5" y="-40.8" font-family="Helvetica,sans-Serif" font-size="9.00">TableValidate.ts</text>
</a>
</g>
</g>
</g>
</svg>
